<svg width="20" height="20" viewBox="0 0 20 20" fill="none" xmlns="http://www.w3.org/2000/svg">
<path fill-rule="evenodd" clip-rule="evenodd" d="M6.5 2.5C4.29086 2.5 2.5 4.29086 2.5 6.5V13.5C2.5 15.7091 4.29086 17.5 6.5 17.5H13.5C15.7091 17.5 17.5 15.7091 17.5 13.5V6.5C17.5 4.29086 15.7091 2.5 13.5 2.5H6.5ZM15.1726 7.25592C15.498 6.93049 15.498 6.40285 15.1726 6.07741C14.8472 5.75197 14.3195 5.75197 13.9941 6.07741L8.33333 11.7382L6.00592 9.41075C5.68049 9.08531 5.15285 9.08531 4.82741 9.41075C4.50197 9.73618 4.50197 10.2638 4.82741 10.5893L7.74408 13.5059C7.90036 13.6622 8.11232 13.75 8.33333 13.75C8.55435 13.75 8.76631 13.6622 8.92259 13.5059L15.1726 7.25592Z" fill="#574B9B" fill-opacity="0.54"/>
</svg>
