<svg width="23" height="24" viewBox="0 0 23 24" fill="none" xmlns="http://www.w3.org/2000/svg">
<path d="M22.4087 12.3805C20.0524 12.937 17.1394 13.7468 15.3887 15.3787C13.2558 17.3666 12.4715 20.3949 11.7747 23.4146C11.7076 23.7059 11.2744 23.7059 11.2066 23.4149C10.6444 20.9949 9.92002 18.0894 8.39896 16.2925C6.46406 14.007 3.48286 13.0719 0.555726 12.3805C0.249654 12.3081 0.249654 11.9226 0.555726 11.8503C3.11551 11.2455 6.04815 10.4437 7.87941 8.58843C9.78815 6.65449 10.5549 3.62205 11.2066 0.815844C11.2741 0.524879 11.7076 0.524872 11.7747 0.816154C12.3831 3.45229 13.4214 6.44761 15.1525 8.3273C17.0323 10.3682 19.6875 11.2074 22.4084 11.8503C22.7148 11.9226 22.7148 12.3081 22.4087 12.3805Z" fill="#4CAF50"/>
</svg>
