<svg width="50" height="36" viewBox="0 0 50 36" fill="none" xmlns="http://www.w3.org/2000/svg">
<path d="M42.5 5.5C42.5 2.75 40.25 0.5 37.5 0.5H30V5.5H37.5V12.125L28.8 23H20V10.5H10C4.475 10.5 0 14.975 0 20.5V28H5C5 32.15 8.35 35.5 12.5 35.5C16.65 35.5 20 32.15 20 28H31.2L42.5 13.875V5.5ZM5 23V20.5C5 17.75 7.25 15.5 10 15.5H15V23H5ZM12.5 30.5C11.125 30.5 10 29.375 10 28H15C15 29.375 13.875 30.5 12.5 30.5Z" fill="#67517A"/>
<path d="M20 3H7.5V8H20V3Z" fill="#67517A"/>
<path d="M42.5 20.5C38.35 20.5 35 23.85 35 28C35 32.15 38.35 35.5 42.5 35.5C46.65 35.5 50 32.15 50 28C50 23.85 46.65 20.5 42.5 20.5ZM42.5 30.5C41.125 30.5 40 29.375 40 28C40 26.625 41.125 25.5 42.5 25.5C43.875 25.5 45 26.625 45 28C45 29.375 43.875 30.5 42.5 30.5Z" fill="#67517A"/>
</svg>
