<svg width="60" height="59" viewBox="0 0 60 59" fill="none" xmlns="http://www.w3.org/2000/svg">
<rect x="0.5" width="59" height="59" rx="29.5" fill="#422659" fill-opacity="0.04"/>
<g clipPath="url(#clip0_3726_3434)">
<path d="M25.8737 29.2512C25.2438 29.8812 25.6899 30.9583 26.5808 30.9583H26.8854C27.4377 30.9583 27.8854 31.406 27.8854 31.9583V34.3333C27.8854 34.8856 28.3331 35.3333 28.8854 35.3333H31.1145C31.6668 35.3333 32.1145 34.8856 32.1145 34.3333V31.9583C32.1145 31.406 32.5623 30.9583 33.1145 30.9583H33.4191C34.31 30.9583 34.7562 29.8812 34.1262 29.2512L30.7071 25.8321C30.3165 25.4416 29.6834 25.4416 29.2929 25.8321L25.8737 29.2512Z" fill="#495F6A"/>
<path d="M40.7188 26.6417C39.7271 21.6104 35.3083 17.8333 30 17.8333C25.7854 17.8333 22.125 20.225 20.3021 23.725C15.9125 24.1917 12.5 27.9104 12.5 32.4167C12.5 37.2438 16.4229 41.1667 21.25 41.1667H40.2083C44.2333 41.1667 47.5 37.9 47.5 33.875C47.5 30.025 44.5104 26.9042 40.7188 26.6417ZM40.2083 38.25H21.25C18.0271 38.25 15.4167 35.6396 15.4167 32.4167C15.4167 29.4271 17.6479 26.9333 20.6083 26.6271L21.3885 26.5469C21.9792 26.5469 22.3267 26.5469 22.5333 25.774L22.8979 25.0813C24.2833 22.4125 26.9958 20.75 30 20.75C33.8208 20.75 37.1167 23.4625 37.8604 27.2104L38.0792 28.3042C38.0792 29.2039 38.75 29.5 39.4135 29.4781L40.5292 29.5583C42.8042 29.7042 44.5833 31.6146 44.5833 33.875C44.5833 36.2813 42.6146 38.25 40.2083 38.25Z" fill="#495F6A"/>
</g>
<defs>
<clipPath id="clip0_3726_3434">
<rect width="35" height="35" fill="white" transform="translate(12.5 12)"/>
</clipPath>
</defs>
</svg>
