<svg width="32" height="32" viewBox="0 0 32 32" fill="none" xmlns="http://www.w3.org/2000/svg">
<g clipPath="url(#clip0_3726_4475)">
<path d="M24.1014 15.1161C23.8085 14.8232 23.3337 14.8232 23.0408 15.1161L15.4394 22.7175C13.8767 24.2802 11.3452 24.2802 9.78251 22.7175C8.21981 21.1548 8.21981 18.6234 9.78251 17.0607L18.6213 8.22182C19.5972 7.24602 21.1811 7.24601 22.1569 8.22182C23.1327 9.19763 23.1327 10.7815 22.1569 11.7574L14.7323 19.182C14.3433 19.5709 13.707 19.5709 13.318 19.182C12.9291 18.7931 12.9291 18.1567 13.318 17.7678L19.5052 11.5806C19.7981 11.2877 19.7981 10.8128 19.5052 10.5199C19.2123 10.227 18.7375 10.227 18.4446 10.5199L12.2574 16.7071C11.2816 17.6829 11.2816 19.2668 12.2574 20.2426C13.2332 21.2184 14.8171 21.2184 15.7929 20.2426L23.2175 12.818C24.7802 11.2553 24.7802 8.72387 23.2175 7.16116C21.6548 5.59846 19.1234 5.59846 17.5607 7.16116L8.72185 16C6.57225 18.1496 6.57225 21.6286 8.72185 23.7782C10.8715 25.9278 14.3504 25.9278 16.5 23.7782L24.1014 16.1768C24.3943 15.8839 24.3943 15.409 24.1014 15.1161Z" fill="#574B9B" fill-opacity="0.54"/>
</g>
<defs>
<clipPath id="clip0_3726_4475">
<rect width="24" height="24" fill="white" transform="translate(4 4)"/>
</clipPath>
</defs>
</svg>
