<svg width="200" height="201" viewBox="0 0 200 201" fill="none" xmlns="http://www.w3.org/2000/svg">
<ellipse cx="100.65" cy="101.154" rx="94.2474" ry="94.2474" fill="#4CAF50"/>
<path opacity="0.7" d="M100 200.77C44.8602 200.77 0 155.909 0 100.77C0 45.6297 44.8602 0.769531 100 0.769531C155.14 0.769531 200 45.6297 200 100.77C200 155.909 155.14 200.77 100 200.77ZM100 7.41502C48.5247 7.41502 6.64549 49.2943 6.64549 100.77C6.64549 152.245 48.5247 194.124 100 194.124C151.475 194.124 193.354 152.245 193.354 100.77C193.354 49.2943 151.475 7.41502 100 7.41502Z" fill="#4CAF50"/>
<path d="M49.0723 106.045L86.6132 143.586L161.695 68.5039" stroke="white" stroke-width="30" stroke-linecap="round" stroke-linejoin="round"/>
<ellipse opacity="0.15" cx="118.462" cy="93.396" rx="2.42081" ry="2.42331" fill="#A54243"/>
<ellipse opacity="0.15" cx="103.345" cy="144.958" rx="2.42081" ry="2.42331" fill="#FFB400"/>
<ellipse opacity="0.15" cx="71.8564" cy="132.865" rx="2.42081" ry="2.42331" fill="#A54243"/>
<ellipse opacity="0.15" cx="50.0771" cy="93.396" rx="2.42081" ry="2.42331" fill="#FFB400"/>
</svg>
