<svg width="38" height="38" viewBox="0 0 38 38" fill="none" xmlns="http://www.w3.org/2000/svg">
<path d="M19.0001 14.8327C16.7001 14.8327 14.8334 16.6993 14.8334 18.9993C14.8334 21.2993 16.7001 23.166 19.0001 23.166C21.3001 23.166 23.1667 21.2993 23.1667 18.9993C23.1667 16.6993 21.3001 14.8327 19.0001 14.8327ZM19.0001 10.666C14.4001 10.666 10.6667 14.3993 10.6667 18.9993C10.6667 23.5993 14.4001 27.3327 19.0001 27.3327C23.6001 27.3327 27.3334 23.5993 27.3334 18.9993C27.3334 14.3993 23.6001 10.666 19.0001 10.666ZM19.0001 25.666C15.3167 25.666 12.3334 22.6827 12.3334 18.9993C12.3334 15.316 15.3167 12.3327 19.0001 12.3327C22.6834 12.3327 25.6667 15.316 25.6667 18.9993C25.6667 22.6827 22.6834 25.666 19.0001 25.666Z" fill="#422659"/>
</svg>
