<svg width="68" height="70" viewBox="0 0 68 70" fill="none" xmlns="http://www.w3.org/2000/svg">
<path opacity="0.5" d="M66.4437 35.7738C59.3708 37.4504 50.6272 39.8889 45.3725 44.8026C38.9704 50.7889 36.6163 59.9098 34.5246 69.0041C34.3229 69.8809 33.0225 69.8818 32.8198 69.0051C31.1329 61.7165 28.9584 52.9666 24.3919 47.5554C18.5837 40.6722 9.63522 37.8559 0.84918 35.7738C-0.0695182 35.5562 -0.0695182 34.3949 0.84918 34.1773C8.53271 32.356 17.3359 29.9415 22.8323 24.3542C28.562 18.5294 30.8631 9.39744 32.8194 0.946008C33.0222 0.0695964 34.3229 0.070242 34.5242 0.946978C36.3501 8.88561 39.4668 17.9066 44.6632 23.5676C50.3052 29.7142 58.276 32.2412 66.4433 34.1773C67.3624 34.3953 67.362 35.5562 66.4437 35.7738Z" fill="#FFB400"/>
</svg>
