<svg width="48" height="49" viewBox="0 0 48 49" fill="none" xmlns="http://www.w3.org/2000/svg">
<path opacity="0.6" d="M46.9874 24.8299C42.0386 26.0031 35.9203 27.7092 32.2434 31.1477C27.7639 35.3365 26.1166 41.7185 24.6528 48.0821C24.5118 48.6954 23.6019 48.6961 23.4598 48.0827C22.2794 42.9829 20.7577 36.8603 17.5628 33.0738C13.4986 28.2574 7.2372 26.2869 1.0894 24.8299C0.446764 24.6775 0.446764 23.8653 1.0894 23.7128C6.46583 22.4384 12.6256 20.7489 16.4715 16.8391C20.481 12.7635 22.0907 6.37337 23.4598 0.459697C23.6019 -0.153661 24.5118 -0.153018 24.6528 0.460341C25.9304 6.01528 28.1112 12.3276 31.7474 16.2886C35.6954 20.5896 41.2725 22.3577 46.9874 23.7125C47.6304 23.8653 47.6304 24.6778 46.9874 24.8299Z" fill="#4CAF50"/>
</svg>
