<svg width="725" height="573" viewBox="0 0 725 573" fill="none" xmlns="http://www.w3.org/2000/svg">
<g opacity="0.05" filter="url(#filter0_f_1_72)">
<ellipse cx="144.523" cy="60.4643" rx="144.523" ry="60.4643" transform="matrix(0.978835 -0.204652 0.237072 0.971492 206.84 257.355)" fill="#FFB400"/>
</g>
<path d="M351 388.033C484.653 388.033 593 385.188 593 381.679C593 378.169 484.653 375.324 351 375.324C217.347 375.324 109 378.169 109 381.679C109 385.188 217.347 388.033 351 388.033Z" fill="#422659" fill-opacity="0.04"/>
<path opacity="0.6" d="M294.987 138.83C290.038 140.003 283.919 141.709 280.243 145.148C275.763 149.336 274.116 155.719 272.652 162.082C272.511 162.695 271.601 162.696 271.459 162.083C270.279 156.983 268.757 150.86 265.562 147.074C261.498 142.257 255.236 140.287 249.089 138.83C248.446 138.677 248.446 137.865 249.089 137.713C254.465 136.438 260.625 134.749 264.471 130.839C268.48 126.764 270.09 120.373 271.459 114.46C271.601 113.846 272.511 113.847 272.652 114.46C273.93 120.015 276.11 126.328 279.747 130.289C283.695 134.59 289.272 136.358 294.987 137.713C295.63 137.865 295.63 138.678 294.987 138.83Z" fill="#4CAF50"/>
<path opacity="0.5" d="M198.444 252.774C191.371 254.45 182.627 256.889 177.373 261.803C170.97 267.789 168.616 276.91 166.525 286.004C166.323 286.881 165.023 286.882 164.82 286.005C163.133 278.716 160.958 269.967 156.392 264.555C150.584 257.672 141.635 254.856 132.849 252.774C131.93 252.556 131.93 251.395 132.849 251.177C140.533 249.356 149.336 246.942 154.832 241.354C160.562 235.529 162.863 226.397 164.819 217.946C165.022 217.07 166.323 217.07 166.524 217.947C168.35 225.886 171.467 234.907 176.663 240.568C182.305 246.714 190.276 249.241 198.443 251.177C199.362 251.395 199.362 252.556 198.444 252.774Z" fill="#FFB400"/>
<path d="M518.102 186.928C515.702 187.496 512.734 188.324 510.95 189.992C508.777 192.025 507.978 195.12 507.268 198.207C507.199 198.505 506.758 198.505 506.689 198.207C506.116 195.734 505.378 192.763 503.828 190.927C501.857 188.59 498.82 187.634 495.837 186.928C495.525 186.854 495.525 186.46 495.837 186.386C498.445 185.767 501.433 184.948 503.299 183.051C505.244 181.074 506.025 177.974 506.689 175.106C506.758 174.808 507.199 174.809 507.268 175.106C507.888 177.801 508.946 180.863 510.709 182.784C512.624 184.87 515.33 185.728 518.102 186.386C518.414 186.46 518.414 186.854 518.102 186.928Z" fill="#FFB400"/>
<path d="M231.048 324.627C228.647 325.196 225.679 326.023 223.896 327.692C221.723 329.724 220.923 332.819 220.213 335.906C220.145 336.204 219.703 336.204 219.635 335.907C219.062 333.433 218.324 330.463 216.774 328.626C214.803 326.289 211.765 325.334 208.783 324.627C208.471 324.553 208.471 324.159 208.783 324.085C211.391 323.467 214.379 322.647 216.245 320.75C218.189 318.773 218.971 315.674 219.635 312.805C219.703 312.508 220.145 312.508 220.213 312.805C220.833 315.5 221.891 318.562 223.655 320.483C225.57 322.57 228.276 323.428 231.048 324.085C231.36 324.159 231.36 324.553 231.048 324.627Z" fill="#FFB400"/>
<path d="M286.409 378.38C284.053 378.937 281.14 379.747 279.389 381.379C277.256 383.367 276.472 386.395 275.775 389.415C275.708 389.706 275.275 389.706 275.207 389.415C274.645 386.995 273.921 384.089 272.399 382.293C270.465 380.007 267.483 379.072 264.556 378.38C264.25 378.308 264.25 377.923 264.556 377.85C267.116 377.246 270.049 376.444 271.88 374.588C273.789 372.654 274.555 369.622 275.207 366.816C275.275 366.525 275.708 366.525 275.775 366.816C276.384 369.452 277.422 372.448 279.153 374.327C281.033 376.368 283.688 377.207 286.409 377.85C286.715 377.923 286.715 378.308 286.409 378.38Z" fill="#4CAF50"/>
<ellipse cx="351.649" cy="277.154" rx="94.2474" ry="94.2474" fill="#4CAF50"/>
<path opacity="0.7" d="M351 376.77C295.86 376.77 251 331.909 251 276.77C251 221.63 295.86 176.77 351 176.77C406.14 176.77 451 221.63 451 276.77C451 331.909 406.14 376.77 351 376.77ZM351 183.415C299.525 183.415 257.645 225.294 257.645 276.77C257.645 328.245 299.525 370.124 351 370.124C402.475 370.124 444.354 328.245 444.354 276.77C444.354 225.294 402.475 183.415 351 183.415Z" fill="#4CAF50"/>
<path d="M300.074 282.045L337.615 319.586L412.696 244.504" stroke="white" stroke-width="30" stroke-linecap="round" stroke-linejoin="round"/>
<ellipse opacity="0.15" cx="369.462" cy="269.396" rx="2.42081" ry="2.42331" fill="#A54243"/>
<ellipse opacity="0.15" cx="354.346" cy="320.958" rx="2.42081" ry="2.42331" fill="#FFB400"/>
<ellipse opacity="0.15" cx="322.858" cy="308.865" rx="2.42081" ry="2.42331" fill="#A54243"/>
<ellipse opacity="0.15" cx="301.078" cy="269.396" rx="2.42081" ry="2.42331" fill="#FFB400"/>
<defs>
<filter id="filter0_f_1_72" x="0.439026" y="0.738144" width="724.399" height="571.562" filterUnits="userSpaceOnUse" color-interpolation-filters="sRGB">
<feFlood flood-opacity="0" result="BackgroundImageFix"/>
<feBlend mode="normal" in="SourceGraphic" in2="BackgroundImageFix" result="shape"/>
<feGaussianBlur stdDeviation="110" result="effect1_foregroundBlur_1_72"/>
</filter>
</defs>
</svg>
