<svg width="56" height="56" viewBox="0 0 56 56" fill="none" xmlns="http://www.w3.org/2000/svg">
<g clip-path="url(#clip0_3726_4416)">
<rect x="8" y="8" width="40" height="40" rx="20" fill="#422659"/>
<path d="M27.9992 27.7273C27.9992 29.2614 27.7223 30.5871 27.1683 31.7045C26.6143 32.822 25.8544 33.6837 24.8885 34.2898C23.9225 34.8958 22.8193 35.1989 21.5788 35.1989C20.3383 35.1989 19.235 34.8958 18.2691 34.2898C17.3032 33.6837 16.5433 32.822 15.9893 31.7045C15.4353 30.5871 15.1583 29.2614 15.1583 27.7273C15.1583 26.1932 15.4353 24.8674 15.9893 23.75C16.5433 22.6326 17.3032 21.7708 18.2691 21.1648C19.235 20.5587 20.3383 20.2557 21.5788 20.2557C22.8193 20.2557 23.9225 20.5587 24.8885 21.1648C25.8544 21.7708 26.6143 22.6326 27.1683 23.75C27.7223 24.8674 27.9992 26.1932 27.9992 27.7273ZM26.2947 27.7273C26.2947 26.4678 26.084 25.4048 25.6626 24.5384C25.2459 23.6719 24.6801 23.0161 23.9652 22.571C23.2549 22.1259 22.4595 21.9034 21.5788 21.9034C20.6981 21.9034 19.9003 22.1259 19.1853 22.571C18.4751 23.0161 17.9093 23.6719 17.4879 24.5384C17.0712 25.4048 16.8629 26.4678 16.8629 27.7273C16.8629 28.9867 17.0712 30.0497 17.4879 30.9162C17.9093 31.7827 18.4751 32.4384 19.1853 32.8835C19.9003 33.3286 20.6981 33.5511 21.5788 33.5511C22.4595 33.5511 23.2549 33.3286 23.9652 32.8835C24.6801 32.4384 25.2459 31.7827 25.6626 30.9162C26.084 30.0497 26.2947 28.9867 26.2947 27.7273ZM31.1009 35V20.4545H36.0157C37.1568 20.4545 38.0895 20.6605 38.814 21.0724C39.5431 21.4796 40.0829 22.0312 40.4333 22.7273C40.7837 23.4233 40.9588 24.1998 40.9588 25.0568C40.9588 25.9138 40.7837 26.6927 40.4333 27.3935C40.0876 28.0942 39.5526 28.6529 38.8282 29.0696C38.1037 29.4815 37.1757 29.6875 36.0441 29.6875H32.5213V28.125H35.9873C36.7685 28.125 37.3959 27.9901 37.8694 27.7202C38.3428 27.4503 38.6861 27.0857 38.8992 26.6264C39.117 26.1624 39.2259 25.6392 39.2259 25.0568C39.2259 24.4744 39.117 23.9536 38.8992 23.4943C38.6861 23.035 38.3405 22.6752 37.8623 22.4148C37.384 22.1496 36.7496 22.017 35.9588 22.017H32.8623V35H31.1009Z" fill="white"/>
</g>
<rect x="36" y="36" width="12" height="12" rx="6" fill="white"/>
<circle cx="42" cy="42.0008" r="4" fill="#2E7D32"/>
<defs>
<clipPath id="clip0_3726_4416">
<rect x="8" y="8" width="40" height="40" rx="20" fill="white"/>
</clipPath>
</defs>
</svg>
