<svg width="22" height="22" viewBox="0 0 22 22" fill="none" xmlns="http://www.w3.org/2000/svg">
<path d="M10.0834 7.33331C10.0834 6.82705 10.4938 6.41665 11 6.41665C11.5063 6.41665 11.9167 6.82705 11.9167 7.33331C11.9167 7.83957 11.5063 8.24998 11 8.24998C10.4938 8.24998 10.0834 7.83957 10.0834 7.33331ZM10.0834 11C10.0834 10.4937 10.4938 10.0833 11 10.0833C11.5063 10.0833 11.9167 10.4937 11.9167 11V14.6666C11.9167 15.1729 11.5063 15.5833 11 15.5833C10.4938 15.5833 10.0834 15.1729 10.0834 14.6666V11ZM11 1.83331C5.94004 1.83331 1.83337 5.93998 1.83337 11C1.83337 16.06 5.94004 20.1666 11 20.1666C16.06 20.1666 20.1667 16.06 20.1667 11C20.1667 5.93998 16.06 1.83331 11 1.83331ZM11 18.3333C6.95754 18.3333 3.66671 15.0425 3.66671 11C3.66671 6.95748 6.95754 3.66665 11 3.66665C15.0425 3.66665 18.3334 6.95748 18.3334 11C18.3334 15.0425 15.0425 18.3333 11 18.3333Z" fill="#FFB900"/>
</svg>
