<svg width="24" height="25" viewBox="0 0 24 25" fill="none" xmlns="http://www.w3.org/2000/svg">
<path d="M23.1026 12.9276C20.7018 13.4965 17.7339 14.3242 15.9501 15.9924C13.7771 18.0245 12.9779 21.1205 12.268 24.2071C12.1996 24.5048 11.7583 24.5048 11.6892 24.2074C11.1163 21.7335 10.3783 18.7634 8.82857 16.9266C6.85717 14.5902 3.81975 13.6343 0.8374 12.9276C0.525554 12.8536 0.525554 12.4595 0.8374 12.3856C3.44546 11.7673 6.43342 10.9477 8.29923 9.05117C10.244 7.07421 11.0251 3.97434 11.6892 1.10573C11.7579 0.808295 12.1996 0.808612 12.268 1.10605C12.8878 3.8008 13.9458 6.86273 15.7095 8.78422C17.6244 10.8705 20.33 11.7284 23.1022 12.3856C23.4144 12.4595 23.4144 12.8536 23.1026 12.9276Z" fill="#FFB400"/>
</svg>
